/* XPM */
static char *_275ae8c0a2e40cfd7d1a62c49d933fefoQ9IkTVUtcq4TW2[] = {
/* columns rows colors chars-per-pixel */
"108 40 193 2 ",
"   c None",
".  c #000001",
"X  c #00030C",
"o  c #020A0E",
"O  c #0B0B0B",
"+  c #0A0805",
"@  c #100D09",
"#  c #000513",
"$  c #020A15",
"%  c #090C15",
"&  c #050C19",
"*  c #090E1A",
"=  c #000719",
"-  c #100F14",
";  c #071014",
":  c #0B1117",
">  c #0A111D",
",  c #04111D",
"<  c #151413",
"1  c #181714",
"2  c #1B1917",
"3  c #11131C",
"4  c #1D1D1A",
"5  c #16191E",
"6  c #221D1C",
"7  c #23211E",
"8  c #000F22",
"9  c #0D1421",
"0  c #0C1C29",
"q  c #111520",
"w  c #151B25",
"e  c #1B1D24",
"r  c #151E2B",
"t  c #1B1E29",
"y  c #0D1B30",
"u  c #121F32",
"i  c #1C212B",
"p  c #1F2024",
"a  c #0F233D",
"s  c #1C2633",
"d  c #1E2936",
"f  c #1F2A38",
"g  c #242323",
"h  c #292724",
"j  c #2A2825",
"k  c #22242B",
"l  c #27282F",
"z  c #2E2C29",
"x  c #32302C",
"c  c #212631",
"v  c #212936",
"b  c #2A2B32",
"n  c #252D3A",
"m  c #292E3B",
"M  c #27303E",
"N  c #29313D",
"B  c #343435",
"V  c #3A3733",
"C  c #34373D",
"Z  c #450003",
"A  c #403D37",
"S  c #44423C",
"D  c #1F2B40",
"F  c #2D3442",
"G  c #2F384A",
"H  c #303742",
"J  c #313843",
"K  c #3D3E44",
"L  c #343C4C",
"P  c #393F4E",
"I  c #343E51",
"U  c #793B42",
"Y  c #3D404B",
"T  c #3B4355",
"R  c #3B4659",
"E  c #3F4A5C",
"W  c #374152",
"Q  c #3D4760",
"!  c #4B4843",
"~  c #41444D",
"^  c #45464B",
"/  c #464851",
"(  c #4C4D55",
")  c #424C5D",
"_  c #4A4E5A",
"`  c #414550",
"'  c #4F5156",
"]  c #4F515C",
"[  c #51535D",
"{  c #575655",
"}  c #625E58",
"|  c #66635B",
" . c #6A665E",
".. c #444E60",
"X. c #475164",
"o. c #4C5263",
"O. c #4B5569",
"+. c #545661",
"@. c #565863",
"#. c #595C66",
"$. c #535A6E",
"%. c #5C5F6A",
"&. c #555E73",
"*. c #585F74",
"=. c #5E616B",
"-. c #5D6066",
";. c #5A6176",
":. c #5C647B",
">. c #576177",
",. c #62646D",
"<. c #66686E",
"1. c #6C6A6A",
"2. c #716D67",
"3. c #626573",
"4. c #676973",
"5. c #6A6C75",
"6. c #61697F",
"7. c #6C6E7A",
"8. c #6E717A",
"9. c #6D7077",
"0. c #72757E",
"q. c #797878",
"w. c #91575C",
"e. c #834D51",
"r. c #817C74",
"t. c #A76B71",
"y. c #858179",
"u. c #8A857C",
"i. c #626A82",
"p. c #6F7080",
"a. c #6A738C",
"s. c #747681",
"d. c #767981",
"f. c #797B84",
"g. c #7C7C89",
"h. c #6C7690",
"j. c #807F8D",
"k. c #7E818C",
"l. c #838284",
"z. c #8A8784",
"x. c #82818E",
"c. c #8C8B8C",
"v. c #8F8B82",
"b. c #928E8B",
"n. c #96928D",
"m. c #9A958B",
"M. c #858591",
"N. c #888794",
"B. c #868992",
"V. c #8A8B96",
"C. c #8D8F99",
"Z. c #8F9298",
"A. c #999693",
"S. c #92949C",
"D. c #9B9A99",
"F. c #A29E99",
"G. c #A29D94",
"H. c #A7A29B",
"J. c #AAA49C",
"K. c #AFA99F",
"L. c #A6A197",
"P. c #979AA2",
"I. c #9A9DA5",
"U. c #9C9FA8",
"Y. c #9EA1AA",
"T. c #9EA0A7",
"R. c #A4A4A6",
"E. c #AEA8A0",
"W. c #A2A5AD",
"Q. c #A8A8AA",
"!. c #B1ACA4",
"~. c #A4A7B0",
"^. c #A6A9B2",
"/. c #ABACB1",
"(. c #ABAEB9",
"). c #AFB2BB",
"_. c #B2B2B4",
"`. c #B3B4BB",
"'. c #B9BABE",
"]. c #BCBDC1",
"[. c #B4B7C1",
"{. c #C1C2C6",
"}. c #C3C4C8",
"|. c #C6C6CA",
" X c #C5C6CC",
".X c #C8C9CD",
"XX c #CDCDD2",
"oX c #D5D5D8",
"OX c #DBDBDD",
"+X c #DADADD",
"@X c #DBDBDD",
"#X c #D0D1D5",
"$X c #E0E0E3",
/* pixels */
"                                                                                                                                                                                                                        ",
"                                                                                                                                                                                                                        ",
"                                                                                                                                                                                                                        ",
"                                                                                                                                                                                                                        ",
"                                                                                                                                                                                                                        ",
"                                                                                                                                                                                                                        ",
"                                                                                                                                                                                                                        ",
"                                                                                            c v c c c c c c c c c c c i w w w w w                                                                                       ",
"                                                                                        X e >.:.6.:.:.6.6.6.6.6.:.6.6.&.) ) ) ) ) N . $ $ X $                                                                           ",
"                                                                                      m ;.e e k p k k s p s p p k k k i w 5 i > ; a R X.) X./ k . . X                                                                   ",
"                                                                                    H $.D /._._._._._._._._._._._._._./.`.R.B _._.}.0.. . . . . R ) R v . .                                                             ",
"                                                                                  Y O._ R.oX@X@XOXOXOXOXOXOXOXOXOXOXOX+X$X|.^ ].|..X_.Q.Q.Q.Q.I.y r Q ) L L F . .                                                       ",
"                                                                                P Q o.R.OXoX|.}.|.}.}.}.}.}.}.}.{.{.}.{..X_.K `._.~.{.#XXXXX#X+XD.#.L H R O.E G F                                                       ",
"                                                                              H o.3.A.|.].].R.P.T.T.T.T.I.T.I.I.T.T.T.T.Y.Z.C '.Q.T.T.P.T.S.T.'. XZ.N B ` L W R W F M                                                   ",
"                                  w F F H H F F F F H F F F F F F F H F F H = $.G c.{.4.d.0.d.f.d.d.0.d.d.d.d.d.d.d.k.0.k.9.g 9.f.d.f.f.d.k.k.q.9.f.C <.,.. % . # R ) i X &                                             ",
"                              M v F *.i.:.:.:.:.:.:.:.i.:.:.:.:.:.:.:.:.:.i.T 8 #.f.0.d.d.d.d.d.d.d.d.d.d.d.d.d.d.d.0.0.q.9.l 0.d.d.d.0.0.0.0.f.0.k.B -.-.. 3 $ $ & % # $ $ = $                                         ",
"                        v n v v v f F n F n F n F n D M M M F n n F M M n F v v M H H J J J J H J H H H H H H H F H H H H N v H F H H H H H J J J J M F F i , , & & & & & $ $ $ $ $                                     ",
"                    h.a.6.:.;.;.:.:.;.;.>.>.>.;.:.;.;.:.;.;.;.;.;.;.;.;.*.m $ w * = = = = = = = ; & = 9 f f d f d d f d d d v d s s d f s 0 r 0 r 0 s = . X . . . . . . . X , & & & &                                   ",
"                  > L T P L P P L P Y P P P W P P P P P W P Y P P P P L P t # $ & & & * * * & * * * , > w w e t w t w s M M n m n F v 0 T >.$.&.>.$.$.$.&.O.$.&.$.$.$.$.&.P . . . . $ o ; o o ; $ o o .                 ",
"                  * . . . . . . . . . . . . . . . . . . . . . . . . . . . # = $ $ $ & & & * % & & & & $ # $ = = $ = $ * r r t r i > P [ o.>.&.&.&.&.>.>.&.&.&.&.>.>.&.&.>.X.G L W L , o ; ; ; o ; X 6 w.t.e.            ",
"                  * > 9 9 9 9 * > > > > > > > 9 9 9 9 9 > 8 > * * > , > * & $ $ = $ & & & % & & & & & & & & * * > & * & $ $ $ $ # H / ( ` F L F F F F F F F F F F F F F H G W W W L > o $ o o o $ # 6 w.t.U             ",
"                  e 9 & & * * * $ $ , & & & & & # . . . & > * = & & = $ $ # = $ & & $ & & # = & & $ # & & & = # $ $ $ $ $ $ $ & . +.C . . . . . . . . . X . . . . . . . . . . . . . o ; ; ; ; ; ; > - Z Z               ",
"                  4.H * 9 $ # & & & & % & & , $ r H m m q X X X X X X = = & & * & & & & & * & & & & & & * & & & & & = # $ $ $ * . [ @.' ' ' [ ( k t i i t k b b b c l l l 5 . o o o X . X . . . . X . $                 ",
"                `.~.4.+.K $ e 3 & * . . . . . . H :.6.i.H q s t e i t = & # & $ $ & = # = & # & # & % = $ & $ % $ & & = $ $ $ % 3 4.P.^.W.~.~.U.4.=.,.=.,.=.#.#.#.#.#.%.=./ 5 l g k k h k k k k k h g e #.              ",
"                ).^.Y.~.0.~ [ ~ . < g 7 7 7 j 7 2 K d.i.;.;.:.:.;.:.&.e : 3 3 3 3 3 3 q > 3 3 3 3 3 3 3 3 9 3 3 3 % & & = & % e 4.I.~.~.~.~.~.~.Y.Y.W.Y.~.V.[ #.#.#.s.f.s.s.s.s.s.s.p.s.0.s.s.s.s.s.8.-.#.              ",
"              ^.^.~.~.^.7.. b g . . G.J.J.F.K.r.. 6 K s.i.i.i.i.i.i.i.;.;.;.;.;.;.;.;.;.;.*.;.;.;.;.;.*.*.;.;.;.:.P . 9 % & % e 5.U.~.~.W.W.~.~.^.^.^.^.~.~.I.U.I.s.s.f.f.s.f.f.f.f.f.f.f.s.g.s.d.f.g.;.                ",
"              ).~.~.~.V.( . 3 . A m.z.l.j.z.j.b.u.. + ^ 8._ F P L L L P P P P P P P P P P P P P P P P P P P P P P v # & = & # p 7.Y.~.~.~.W.~.U.V.M.M.B.M.V.N.V.V.f.s.f.f.f.f.f.g.f.f.f.f.g.f.f.g.f.,.                  ",
"              [.W.W.^.0.b : . ! b.V.s.7.p.8.7.g.n.r.7 . 0.4.e . 3 X X . X . . X . X . . X . X . . X X . . X . . . 3 e w e w t p ( k.U.~.~.~.W.~.f.0.s.s.s.s.s.s.s.f.g.7.4.4.4.4.4.4.4.4.4.4.4.4.4.4.@.                  ",
"              W.).).S.@.k w .  .!.%.M.N.g.j.C.p.f.K.j 3 7.j.f./ . . . . . . . . . . . . . . . . . . . . . . . . . . . . . . . . . #.P.^.Y.~.W.S.g.g.8.8.7.7.8.7.7.5.8.#.@.@.+.@.@.@.+.#.@.@.+.@.+.#.%.                  ",
"                [.(.=..     . | K.4.j.g.7.g.N.p.l.J.h % s.0.U.S.#.<.<.<.<.<.<.<.<.<.<.<.<.<.<.<.<.<.<.<.<.<.<.<.<.<.<.<.<.<.<.<.<.7.C.W.~.W.P.s.p.0.=.] [ #.+.+.+.#.+.#.$.@.%.%.=.%.=.=.%.%.,.%.=.=.#.                  ",
"                          2 . | K.3.x.7.f.j.N.p.y.J.h % 0.f.S.W.R.W.W.W.W.W.W.W.W.W.W.W.W.W.W.W.W.W.W.W.W.W.W.W.W.W.W.W.W.W.W.W.~.M.7.V.W.S.0.s.#.[ o.<.4.#.3.3.,.#.3.#.<.<._ +.%.#.#.%.%.#.#.#.#.%.                    ",
"                          2 .  .K.3.k.M.7.s.N.p.l.J.z O   g.g.s.s.s.s.s.s.d.s.s.d.s.s.s.s.s.s.s.s.d.s.s.d.s.s.s.s.s.d.s.s.s.s.s.s.g.5.%.%.%.,.%.  @ . m.A.3.M.N.j.4.j.4.F.u.. 2                                         ",
"                          4 . | E.3.j.N.x.x.V.p.l.J.z .     %.3.%.%.%.=.%.%.%.=.%.%.%.=.%.%.%.=.%.%.%.=.%.%.%.=.%.%.%.=.%.%.%.%.%.3.              < . m.A.4.V.M.x.x.N.3.F.u.. 6                                         ",
"                            + 2 1.J.5.%.3.3.$.l.G.V 2                                                                                               1 6 u.D.$.3.3.3.$.F.y.j .                                           ",
"                              . 6 2.G.J.H.H.K.n.{ . .                                                                                               O . S z.K.H.F.H.J.r.V . <                                           ",
"                              O . . q.r.r.r.y.| . 6                                                                                                   1 . ! r.r.r.r.r.B . 1                                             ",
"                                + 2 . . . . . . 2                                                                                                       1 . . . . . . . <                                               ",
"                                    4 6 4 6 6                                                                                                               h 4 7 4 6                                                   ",
"                                                                                                                                                                                                                        ",
"                                                                                                                                                                                                                        "
};
