/* XPM */
static char *_02d5334868a49509551a0ab434087095CcKxT8aSk0bdVvp[] = {
/* columns rows colors chars-per-pixel */
"29 41 107 2 ",
"   c None",
".  c #352A10",
"X  c #3D3012",
"o  c #463716",
"O  c #473816",
"+  c #483916",
"@  c #4C3C18",
"#  c #513F1A",
"$  c #54421B",
"%  c #59461D",
"&  c #5E4A1F",
"*  c #614C1F",
"=  c #624D20",
"-  c #675122",
";  c #6B5423",
":  c #745A27",
">  c #765D28",
",  c #785E28",
"<  c #7C612A",
"1  c #80652C",
"2  c #86692E",
"3  c #886B2F",
"4  c #98732A",
"5  c #8D6F31",
"6  c #8F7131",
"7  c #947533",
"8  c #9C7A35",
"9  c #9F7E38",
"0  c #A27B2F",
"q  c #A27E35",
"w  c #A17F38",
"e  c #A48036",
"r  c #AE8536",
"t  c #A58139",
"y  c #AA8539",
"u  c #AE893D",
"i  c #B28B3C",
"p  c #B88E3C",
"a  c #BA923F",
"s  c #B48E40",
"d  c #B79041",
"f  c #BC9442",
"g  c #C09744",
"h  c #C39945",
"j  c #C89E47",
"k  c #C79D48",
"l  c #C99F48",
"z  c #CBA14A",
"x  c #D4A74B",
"c  c #D4A74C",
"v  c #D1A54A",
"b  c #D9AB4D",
"n  c #CFA650",
"m  c #D1A952",
"M  c #D2AA52",
"N  c #D2AA53",
"B  c #D3AA54",
"V  c #D4AC55",
"C  c #D5AD55",
"Z  c #D6AE55",
"A  c #D5AD56",
"S  c #D6AD56",
"D  c #D6AE56",
"F  c #D8AF57",
"G  c #D9B159",
"H  c #DAB159",
"J  c #DAB259",
"K  c #DEB55B",
"L  c #E1B85E",
"P  c #E2B95E",
"I  c #EAC265",
"U  c #EBC265",
"Y  c #EBC366",
"T  c #EFC568",
"R  c #F0C668",
"E  c #F1C76A",
"W  c #F3CA6B",
"Q  c #F4CB6C",
"!  c #F5CB6C",
"~  c #F5CC6D",
"^  c #F6CD6D",
"/  c #F7CF6F",
"(  c #F8CF6F",
")  c #F8D06F",
"_  c #F9D06F",
"`  c #FED26E",
"'  c #F9D070",
"]  c #FAD170",
"[  c #FBD271",
"{  c #FCD472",
"}  c #FDD472",
"|  c #FDD473",
" . c #FED473",
".. c #FED573",
"X. c #FED673",
"o. c #FFD673",
"O. c #FDD474",
"+. c #FED674",
"@. c #FFD674",
"#. c #FFD774",
"$. c #FFD873",
"%. c #FFD875",
"&. c #FFD975",
"*. c #FFDA76",
"=. c #FFDD78",
"-. c #FFDE78",
";. c #FFE179",
/* pixels */
"                          h g h                           ",
"                        h c k v h                         ",
"                h h h h z h g h j h h h p                 ",
"              h b k l h h h h h h h z j a q               ",
"              h h h h h h h h f h g h f e y               ",
"              h k h h h h h h h h h h u e e               ",
"              h v h h f h f h h h h i q y q               ",
"                k k k k k k h k f i t t i                 ",
"                i f a f f p i t 8 8 8 e 8                 ",
"                  u u u u u u u u u i d                   ",
"                #.] ( / / / ( ( ( / / ] o.                ",
"                { -.#.#.#.#.#.#.o.o.o.=.o.                ",
"                #.&.o.o.#.#.o.o.o.o.o.&.#.                ",
"                G F D D D V D D D D V / &.                ",
"              g g f f a f h f f a f p N o.;.#.            ",
"          h z z h h h j i 8 f k h h k f T I o.W           ",
"        h x h h h f f z 7 X s z h g h a K E N ;.z         ",
"      h x h g h h k h h 7 $ u f h k k f z _ k I ` 0       ",
"      x h h h h k t 2 > - = ; < 2 7 a g g ^ N k o.z       ",
"    g z h f g h 7 $ $ @ % - $ O @ . 9 h g W H p ! L 4     ",
"  h x h h h k u % = - 6 3 $ 8 8 5 * 8 h h W G i L W r e   ",
"  h k h h f z 7 % * : z 8 @ d z h f f h h W D p N ! i q   ",
"  z h h h h k 8 % & ; d 8 @ d k h h h f z ] n f h l y y   ",
"h v h h h f k t $ - * - : % 6 u f h k f z T k f h g y y e ",
"h z g k g g h g 2 @ & & & = % % - 6 f h h h h h h h y y q ",
"g j g g h h g k f 9 , = * = & % = @ 1 h h f h h h h y e w ",
"h k g k h h g h h h f d 5 % 1 : * - $ u k f h h h h y q t ",
"g k g g h h f k k h h k 8 @ f f - = % t k h h f h g y q q ",
"h h g h h h h u u f h z 9 @ d h - = % t k h h h h g e q e ",
"h k h h h g k 7 $ < 7 t 2 % 7 1 = & & f h h h g h f e e e ",
"h z g h h g k 7 O @ @ @ % - $ $ % % e h g h h h h f q e q ",
"a z h h h h h f t 6 < : - = ; < 6 s k f h h h h h y q y q ",
"h z h h h h h h k k h h 7 $ u k k k g g h h g k a e q y e ",
"h v g h h h g h g g h j 8 @ p k f h h h g h k f t e e r q ",
"  x h h h h g h h g g k 7 o i h g h g h h k f y q e e u   ",
"  y a h h h h h h h h h f s f h h h k g f i e 8 e q e e   ",
"  e i e u p f f f g g f h h f f a p u y q 9 q e q e p q   ",
"    e i 9 q q q e t t e t t e e e 8 8 e q q q e q i q     ",
"      e y i e q e e e 9 q q e q e q e e e q e i y e       ",
"          e q y i r r y y y t t y y y u i r e e           ",
"                e e e e e q q q e q e e                   "
};
