/* XPM */
static char *_d8b21ed59ea4a3b87a9f8cdb543151dl9Ziz7uA3JtZL5zd[] = {
/* columns rows colors chars-per-pixel */
"128 64 63 1 ",
"  c #676767",
". c #686767",
"X c #676867",
"o c #686867",
"O c #676768",
"+ c #686768",
"@ c #676868",
"# c #686868",
"$ c #6B6B6C",
"% c #6C6B6C",
"& c #6B6C6C",
"* c #6C6C6C",
"= c #6F6F6F",
"- c #6E6E70",
"; c #706F70",
": c #706F71",
"> c #6F7071",
", c gray44",
"< c #707072",
"1 c #727172",
"2 c #717272",
"3 c #727374",
"4 c #737374",
"5 c #737475",
"6 c #757475",
"7 c #747476",
"8 c #767678",
"9 c #777678",
"0 c #777778",
"q c #78777A",
"w c #777879",
"e c #787879",
"r c #78787B",
"t c #79797B",
"y c #797A7B",
"u c #79797C",
"i c #7A7A7C",
"p c #7B7B7D",
"a c #7C7B7F",
"s c #7C7C7E",
"d c #7E7D80",
"f c #7D7E80",
"g c #7E7E80",
"h c #7F7F81",
"j c #807F82",
"k c #807F83",
"l c #7F8082",
"z c #7F8083",
"x c #808083",
"c c #D1D2D2",
"v c #D3D3D2",
"b c #D3D2D3",
"n c LightGray",
"m c #D3D3D4",
"M c gray83",
"N c #D4D4D5",
"B c #D4D5D5",
"V c gray84",
"C c #D7D7D7",
"Z c #D7D7D8",
"A c #D8D7D8",
"S c #D7D8D8",
"D c #D9D9DA",
/* pixels */
"  @           ##@   #+    O                                      ###%***-;<<<644777qrruppslhfhhxxxhhffdffqq7979577>>3-%<**%$#%##",
". @@ OO+##O+# ##O X.## oO ## . .      O O  O   .      .    .     +#%#$*-*-<<<<4679q7rrrupppphhhzzzhhffffq8qfqq957>9>;;<***$*###+",
"################################    .  O O##   O+    O##    ..  ###*$$$-;;;<<>46779q9wuupplphhxxxxhhfdfdqfq89977933-3-3*****#$##",
"###$####$############%####$#####bmvvvmvmvvmvbmvcvmvmvvmvbmvvvmvm#$##$&*---*<55>69798ruuuhpplhhkkkkhhdff8q8f89797337>;;;******###",
"##$#&#$#$#*%#&%o*#$#$#%##$$#*##&ccccccbbmvcccccccccbmbbcccccbbbb&###*****,<,<664788888f8rppflhkxhhdffffd8d88f873333-;3<**%$$##&#",
"*$%$$*&&#$*#&#%*%*$$$*#$$#$$&$&&cccccbbbbmccvccbcccbvmcccccccbbv&&$$$*%*;,,<<<447788ff88fffffhkkhhdff8ddf88f78786344;-;**%%%*&$*",
"**&$%*&$$$*%&&*****%$%**%$%$**&#bmbmbbvmbbvvbbbbbmvbbbbcmbcbbcvm&$$%$**-*<<,>54678<f7ffdusshhhhkhhdddf7d8d878883633:3<<;-**%$$&&",
"********-****************%-*****vmvvvvmvbvvmvvmvmvvvbvvvvmvmvvmv****%**-,*<<>>46788<8888usshhhhkkhdff8ddf8ff88777>3-;;;*-******&",
"-*-*%******-*****->***>**-*-*-*-vMvvvbmmmNvNvNvvvmvmMvvvmvmvNvvm**>**-***<;<<<6677888f8dffdhhhxxkxkhfddfddf<888744<6<;<*-**-*-*-",
"*---;;*<<-<***<<<*-*<<**--;*-**;vvVvbmmvvvNvvvNvmvmvMMvmvmvmvvmv-;**<*>**<,<<<56888888d8dffdhhxhkxhhddf-f-f<8887644<<<<**--;-**>",
"<-;*;*;,,<<*<<,,;<,*<,,**;*>*;;<vVMMmvmmNmNNNNNNMvmmMMMMVvNNMMvv*3*<<,*,<;;,<6463888f8fdddhhhhhxhhhhfddfddd<888864<<<;;;>;-%*;3$",
";;;<,,;,=<<<*;,,*;,,<*,,<<<<<<-;MMMMmVVvvNvNNvmmMNmmMMMMvMMMMNNV<;,<><,,<;,<<<<5788888f8<dhhhhkhhhhhffdf<<dd888364<<<,;;>-3-3-3-",
"<<<<,<<,<<<<,,<,3-:3<<,,<,<><<<<,,<,,,<<;::3>3-3;<<,<<,<-;3;::;;<<<<,,<,<,<<54<47f<8<ddffdddhhhkzxkhhhd<fdff<78765<53-:;;;3<-3-;",
"<<4<4<<<<<<<,44<;3;3<<4444<4<3<<<<<4<<43;:7->-:3<<4<4<4<-33:3343<3<<4<44<<5<<446<<88ff<<fddfhhhhhhhhhhddf<<dd7876>4<4:333;3;4:43",
"3<4<4<<444>44<4<4434<4444,4<<464<6<4443;:33:77-53-4-4<4<4;3-33;44<444<4<445>>4467d<d<fddffdfhhxxxxhhdfffffd<777<64<44:3344:44;33",
"34434444444444444:4444<4444444<4MAMVMMmVAmZNMMVMVVVVMMVMAVVVNNNN44444444445<5446<<f<<d<fd<fdhhxxxhhhhdffd<<f77d<64444;4344444443",
"7777656677777733494455665677777>VmVVVmmVMVMZVVmVmVVVmVVVMVMVVmVM445557776656555559w97prrdddffdzzhhhhffwhrpr9w6w65565655567577777",
"55557656377783877466666565577766VmVmVVZMZmVmmZZmVVmmZmVmZmZmVZmV6696567764656655557wrrrp7d7fddzhkhhffhpsrrrwww565666559577557777",
"5959664097878788646q6q049599w796mZVVmVmVVmMZVMmVVVVVmVmVmZMZMVVV666695666q069959997wwrrpdd8ffdhhkkhhfussfrwr9906w66w96606959w766",
"99999w0r7q888888r999600099959999VVVmZVZVVVVVVVZVVZVVVVVVVVVVVVVVr0w99999600099999999wrrfdfffddhhxxhhhhsuuupr79009599w60669995999",
"9w7rww56qq7q888<w9r6rq606r6w7w7rVZVZVVVVVZVVVZVVVZmZVZVZZZZmVVVVu4u999w70004q0r4s400uurud8ffhhxxxxkhhppuuury00y69w9w9q6yw6u6u9w9",
"wwrwwurr7rrr7ff8ww0rqri0rrrwrwrwZVZVDVDVMZZVZmVZZVZZZVZVMZVZVDVAru9rrwwri0qrqrrq0rrywrsrdddfhhxxxxhhshpspurr0r0rwwwwuqrrrrwr9r9r",
"rwrruurwprrr873durrrrriryrurwuuwVVVAVVCCZZVZZVZVVZmZVAVZVZZMCVCCrrwwrrrririrrruur0rrryurffffhhzzhhhhhsrsryry0rrrruwu9uurrrpwwrrr",
"puuuuuurrrprf7d7uuurrrriryuuuuuuDVSVZVCCZZZVVZVZZVZZZVZVZZZZCCCCrrrpprprrirriruuryrsyryrfddfhhxxzhhhshsssryrsrsrruuuuurrryrrprpr",
"wurupuup78f7ddddfqqqfqfqyuuusrsuuususrrrrrrrrssuuuuuhrsruuuuusrurrrsrrrrssrsqqfusrsruuuusssshhhhxxhhfffduuuursrsfuuquusupruuurrr",
"ppppfuppddddd88dffqdd8fqsssrsussussusssssasdsuusufuquursuussussussrsaasssrisqduussrsuhssaislhhhhzzhhfddfuhssusrauhuhssuuusrhshss",
"hpppfpsuffdddfdfdffqfqffssssssssussssssrsssssssuuaahsssssdssssssssssaarassssffrhsssssshshsshhhkkkkhhfd8dssssssssudssssuussspssss",
"plpluhplffdf8ff8fqfdffddsslsssssDVDSCCDDCDCVDDSVDZVDDCCDVDZVCDCDhhsshsshhsssudhfhhssssusuuhshkxkxxhhd8ffsssssshahushuhhslphphsss",
"dfhfhhffddfffdhddfffhfddfhfhhxhsDZDZVDZDCDDDDVDDDDDSDDCDZDZDZDZDhsslslhsshshhpphshslslshhhfhhhkkkkhhdfffshxsssssukashhphhuxusslh",
"hhhhfhhfhhhfhhhhdffdhhffhhfhhshhZDZDDZDVDCDSDVDVVDVDCDDDDZDZDZDZhlshsxxsshlhfhhhlhxsslxshhhhhhkkkkhhfddfsxxslxxxxhlhsxlllhxhxhhp",
"hfhhkhhhhhhhhhzkhkdhhhkkhhhhkkhhDZDADZDDDVVDDDDVDZDSDDCDZDZDZDADlkskxkhxxxsxlxkhpxsxxkkshhhkhhhkkkhhkhddxsxsxksxxxksxhsxkshhkkkh",
"hhkkkhhhxhhhhhkhhhhhkhkhdhkkkhhhDSDDDDDDDDDDDDDDDDDDDDCDDDDDADDDlkxxxxsxxxxxllkxlxxxxxxxhhhhhhkkxkkkkhhhxxxxxkxxxxxxxxxxxxkxkkhh",
"hkkkdddhkkhhhhkkxxxzxxhhhhhkhhkkDDDDDDDADDDDZZDDDDDDDDZDDDDDDDADhhhhhdffhhhhhhddhhhhddffhhhhzhxxxxkkxzxkdddhhhhhhhhhdfdddhhhhhhh",
"kkhhddhdkkhhkkhhhhhhhhhhkhkkhkkkDZDZDAADZDZDDDVDZDDVDDDZDVVDZDDAdhhhhfdfhhhhhhhddhdhhfdfhhhhkhzzzzhhhhhkdddhhhhdhhhhddfdhdhhhhhh",
"dhhhffdfhhfhhhhhxhxxhffhhdhhphhkZDZDDDVDDZDZDDDDDZDDZDZDDZDDDZDAhhhhdhffhhhfdhddhhdfdhffhhhhkhxxxxhhffhhffffhhhhhhhhffdffhhfhhhh",
"hddhffdfdfffdhfhshsshffffffhhhssDZDZVDDDZDZDVDDVZDADDZDZZDDVZDAVhdfdhdffhhffdhfdhdfdddffhhhhhhkkkkhhhfffffffddhdhhhhffdfffdddddh",
"ddd8dffffddddfffusssslssdfufufaaahhuhphushsssshuhphuhsshsssshushdddfddffhddffff8dffffdf-hdddhhhkddffhfddffffffffddddfdffffdddfff",
"ffffffd8fd7dffdfhsssssssdddfufadprssssudassssshsssuhpspassssssssdddfdd<fddfff8dddfffddddddffhhhkhdffddff8ffdf8fffdffffddffdfdffd",
"fddfddff7dff<fddssussrssdddffudupusuhufuauuuuurpsruufuuuususuhrsddfffdfdfdffdd8fdfddfdddddffhhxxhhfdddfdd8f88df8fffddddff$dddddd",
"8d78788ddf7dddd7usuusruy888quuuuSSDVVSVZDVDVDSSSDVDZVZZVDVDVDVVZ$ddd-fd<d<fd7dddfdfdf$ddffffhhxhhhdffdddff7dd8f7fff--d-dddOdfddd",
"yrrruuuu<f7d77f8ruuuuuyruuuuuuurVZZZZVZVVVZVZVZVZVZVAVVZZVZVZVVVddff-d-df8df8888Od$dffdfd7dffdhhhhhhfddd--ff7d7ddf<d-ffdfdddfdff",
"rryrruurd7d77ff8rruwrurrrwuwuwuwZVZZVZVZVCVZVZVZZNVZVAZZVZVZVAVAd--ddf-d88888dd8fddfd-Ofdddffdhhhhhhffddfdd-d77f<<ddfd-fdOOf$ddO",
"rruwrwr9777d7f78r9wrrr00rru9wwwwVZZMZVZVDVVVZVZVZZVZZVZNZNZVZVVVf-fdfdfd8ff8878fff$ddddf8fffddhhkhhhfd<fdff-7dddddd<f-d<fdffddff",
"r0ww6w9q<dd777f7w9r96rr0r6www6wwZVVZVZVVVVZVVZVVVNZVVZVZZVVVVZVV$ff$$-f$88888d87Odd$fOfdddffddhhkhhhffdff-fdf7<7<-d<d<-dOdOd$$dO",
"406rq799888878889999999466w99999VVVmZVVZZZVVVVVVVVVVVVVVVZVVVVVV7dd7f-d-8888<dd<f<-fOd-fdfffhhxxkkhhhhdf-fd<<d77dd<7d-df-f-fdfOd",
"40407q93878q788769779693r6695w95mVMZMVVmmMVMVVVMVNVVVVNVNNVNVVVV77<7$dd-877877<df-f-ffdff8f8hhkkkkhhhdfffdf<f<<d<7f7$f-<f-f$$df$",
"56467777377778375665565976696666mZMSZmZMVMmZVVMSNVNVNVVNVNNZVVVV7<77<d-<777777<<$f-f-f-fffdhhhxxzzhhddff-<dd<7d78<<<d$$d$dOf-d$d",
"5556>777773773737766555775555666VmZmMVmVmZVVmmVmVNVNVNNVNVNNNVNN7777<<-d8<7<77-f--f-f-dffdddhfxxxxhhhdffddf-d<<<38<7-f$$d$d$d$d$",
"654444444444444444444444444<44<453443444333444444433344444434433777<444444444<465999wrppprpfhfhxkhhhhsssuur999977<<86645<6444444",
"53-34:33454<5><44<<4<44<<444446<:343334;334;:3;44:444;3335334;34<<7<444<<4<44446669wwrrpffuhhhhhkhhhhssuuurrw95678<<<<4>46<44<<4",
">>3333;:<<>6<<<4<4<4<<<4<3<5<4<<:-3;3:::>>>>4:333;3;3;::>>>>3;4;<<<<<<<<<<6<>546699rrrrrffhhhhxxkxhfppssuurww9w67-3<<4<<>4<44<4<",
">>>>;<3:<<<<,<<,<,,<,<,,<<<<,,,<VmmNVNmVMMMVNNmNmNNNVNmVMMMMNNNN<<<<<3<<<<,,>>4659969rprqphphxxxxxhlflsufurrw757773<<,<<><,,<<,,",
";<<-;;<;>=<<<<-<;,<<,,,<<<<<<<;;VvvVmNMMMmMMmmmvNNNvmNMMMmMmMmmm--;3-;<<;,,<<<44400rryrsufuhfhxxxxkhspssrruw7w9777-7--,;<<<-,,,;",
";<*>;;*;=<=*<*<<;<<*,,<**<;*;--<mNmmNNMMmMMMVmmmvvNNNNMMmMMMmmmv----<**>*,,<33464006rrrphuffhhxzxxhhhhssufrw9w777773-3<<**<;,,,*",
"*;-;-;*<<-<***-*%**<*<*,;-*<**-*vmNmvNvvMmvmvmmvNvvmNvvvvmMmMMvm--%3*-->;;,,<3464060rsrrusshhhhhzhhhssssryrr9795777:<;<**<>-3**;",
"*****-*****-***-;*<******-**;**-mvvmvvvvmvmvmvvmNvNvvvvvmvmvmvmv$-%-*;****<3<<366004r0uuusshhhhhxhhfsssssr0r99963-::3-;*-**-%***",
"****************************&***vvmvvmvmvmvmvvmvvvbmvvmvmmvmvvmm*********3<<4<447599wrrpfudfhhxxxxhhfdfdsrrr66664446<><***%*****",
"*%******&**%********%%***%%%$&&$bmbmbbbvccmvbbcbvmvbbbbccvcvbbcv&$****-**;<<<4445w99wrurdfufhhzzzzfhffdqsrr04i06444<<>,;-*%$%%$&",
"$$$$$##$#$$$$##$#$%%**%*$$$$&&**bcbbbbmvcvccbbmvbbbbbbvmcvccbbvm$$$#%$*--<<<<4465799rruf8ffdhfkkkkhhffdfsrr0000044<<<<,****$&&$$",
"#%##&#&&$$#$&#&$$$#%#%####$##&##cbbbvmvmvcccvmvmcbbbbvmvvcccbvmv$#$#$$*--;*<<446599wwruuudffhhxkxxhhfqd8ryrrr04444<<<,,<-***##$#",
"#$###########################$##  ###$##  ######  ######O ###$##@##$#****,,<34<46699riisuaaahhhkkhhhdfufrurww9w6644<<,****$$$$#@",
"################################  #@####O ######  @@####O ######@##$#&*<,,<<<446609wrrrrudhshhhkkhhdfdudpuyr9996644<<<<**&$$####",
"# X@#+O+#XO+###O#O@.#++o#O#O#. .   X# OO+.oO##+oO  X#++ .+.o# . ###$*****,,<6<4606400irraauxhhkkkkhdfudquur9w566444<<<<*-*&$&###",
"OO  ##OO##  ##O #@  ##  #OO +   XX  @O  o.  ##+OXX  ##. oo  +O  ####****<*<<<<<6660i6rrauahshkxkkkhhdfufuuuwu966444<<<*--*&&####"
};
