/* XPM */
static char *_8260acf103e45849fd3a8c3a189aa82jE0f8DL4sDggCjT0[] = {
/* columns rows colors chars-per-pixel */
"21 36 16 1 ",
"  c None",
". c gray5",
"X c #2D2621",
"o c #0E3E73",
"O c #554242",
"+ c #7D4C48",
"@ c #C07A5E",
"# c #EA9777",
"$ c #2877CE",
"% c #489EFF",
"& c #8A99AA",
"* c #F9C19D",
"= c #BEC3C9",
"- c #BFD2EA",
"; c #FBDCC8",
": c #EAEBED",
/* pixels */
"       +++++++       ",
"     ++@#####@++     ",
"    +@#*******#@+    ",
"   +@#**;;;;;**#@+   ",
"   +#**;;;;;;;**#+   ",
"  O@#**;;;;;;;**#@O  ",
"  O##**;;;;;;;**##O  ",
"  O##***;;;;;***##O  ",
"  O@##*********##@O  ",
"  O@#@++@***@++@#@O  ",
" O#+##@@#***#@@##+#O ",
" O#@#@..+***+..@#@#O ",
"  O@@+&-X***X-&+@@O  ",
"   O+@=$o***o$=@+O   ",
"    O#:%$***$%:#O    ",
"    O@*;;;;;;;*@O    ",
"     X#*;;*;;*#X     ",
"    OOX@#####@XOO    ",
"   O@@@OXXXXXO@@@O   ",
"  O#****#####****#O  ",
"  O***;;;*#*;;;***O  ",
" O#*#**;;;*;;;**#*#O ",
" O*#+#*********#+**O ",
" O**@+##*****##+@**O ",
"X***#X#***#***#X#***X",
"X#**#X****#****X#**#X",
"X@#+@X****@****X@+#@X",
" X#@+X*********X+@#X ",
"  XXXX#**@+@**#XXXX  ",
"     X@**#O#**@X     ",
"      X**#O#**X      ",
"      X*##O##*X      ",
"      X###O###X      ",
"     X#**#O#**#X     ",
"     X###@O@###X     ",
"     XXXXX XXXXX     "
};
