/* XPM */
static char *_31adaf087b44f4aebaeeac481e7c0957IJlhCfQ6hNcUcLv[] = {
/* columns rows colors chars-per-pixel */
"21 36 10 1 ",
"  c None",
". c #2D2621",
"X c #302525",
"o c #554242",
"O c #7D4C48",
"+ c #C07A5E",
"@ c #C07A68",
"# c #EA9777",
"$ c #F9C19D",
"% c #FBDCC8",
/* pixels */
"       OOOOOOO       ",
"     OO@#####@OO     ",
"    O@#$$$$$$$#@O    ",
"   O@#$$%%%%%$$#@O   ",
"   O#$$%%%%%%%$$#O   ",
"  o@#$%%%%%%%%%$#@o  ",
"  o##$%%%%%%%%%$##o  ",
"  o##$%%%%%%%%%$##o  ",
"  o@#$$%%%%%%%$$#@o  ",
"  o@#$$$%%%%%$$$#@o  ",
" o#@##$$$$$$$$$##@#o ",
" o#@###$$$$$$$###@#o ",
"  oO@###$$$$$###@Oo  ",
"   oO###########Oo   ",
"    o###########o    ",
"    o@#########@o    ",
"     X@#######@X     ",
"    oo.@@###@@.oo    ",
"   o+++@#####@+++o   ",
"  o#$$$$#####$$$$#o  ",
"  o$$$%%%%$%%%%$$$o  ",
" o#$##$%%$$$%%$$#$#o ",
" o$#OO$$$$$$$$$#O$$o ",
" o$$+X#$$$$$$$#O+$$o ",
"X#$$#X#$$$$$$$#X#$$#X",
"X#$$#X$$$$$$$$$X#$$#X",
"X@#@@X$%%$#$%%$X@@#@X",
" X#@OX$$$$@$$$$XO@#X ",
"  XXXX#$$@O@$$#XXXX  ",
"     X@#$#X#$#@X     ",
"      X$$#X#$$X      ",
"      X###X###X      ",
"      X###X###X      ",
"      X###X###X      ",
"      X##@X@##X      ",
"       XXX XXX       "
};
