/* XPM */
static char *_ffa67524ebe4d0cf6cb70d414989c26xJjHhQxYhh12SfWK[] = {
/* columns rows colors chars-per-pixel */
"18 35 16 1 ",
"  c None",
". c gray5",
"X c #2D2621",
"o c #0E3E73",
"O c #554242",
"+ c #7D4C48",
"@ c #C07A5E",
"# c #EA9777",
"$ c #2877CE",
"% c #489EFF",
"& c #8A99AA",
"* c #F9C19D",
"= c #BEC3C9",
"- c #BFD2EA",
"; c #FBDCC8",
": c #EAEBED",
/* pixels */
"     ++++++++     ",
"   ++@#####@++    ",
"  +@#*******#@+   ",
" +@#**;;;;;**#++  ",
" +#**;;;;;;;**@++ ",
"O@#**;;;;;;;;*#++ ",
"O@#**;;;;;;;;**#+ ",
"O@#***;;;;;;***#+ ",
"O@##***********#+ ",
"X@###*****@++@*#+ ",
"X@@#++#***####*#+ ",
"X@@+*#+***@X..##+ ",
"X+@+#*****X&-o##+ ",
" X@+##****#=$o##+ ",
"  X@++#****:%%;;#+",
"   X@@##****;;;;#+",
"    XO@#*******#+ ",
"    OOO@######@+  ",
"   O#######OOO+   ",
"  O#*;;;;;;*#O    ",
"  O**;;;*;;;;#O   ",
" O#*;;*****;;#O   ",
" X#;;##+#****#O   ",
"X#*;*@+#***#@OO   ",
"X#***+@***#@O#O   ",
"X#*@#+#**##O@@X   ",
" X##+@****#XXX    ",
"  XXX#****@X      ",
"  O@O#**;;#O      ",
"  O#@O#**;#OO     ",
" X###@O#***;;X    ",
" X####@X****#X    ",
" X@###XX#**#X     ",
"  XXXX  X##X      ",
"         XX       "
};
