/* XPM */
static char *_6c5edecf0c541a696795903bcc7c1b58wJ78gLrPVjQ3vPx[] = {
/* columns rows colors chars-per-pixel */
"19 35 16 1 ",
"  c None",
". c gray5",
"X c #2D2621",
"o c #0E3E73",
"O c #554242",
"+ c #7D4C48",
"@ c #C07A5E",
"# c #EA9777",
"$ c #2877CE",
"% c #489EFF",
"& c #8A99AA",
"* c #F9C19D",
"= c #BEC3C9",
"- c #BFD2EA",
"; c #FBDCC8",
": c #EAEBED",
/* pixels */
"     ++++++++      ",
"   ++@#####@++     ",
"  +@#*******#@+    ",
" +@#**;;;;;**#++   ",
" +#**;;;;;;;**@++  ",
"O@#**;;;;;;;;*#++  ",
"O@#**;;;;;;;;**#+  ",
"O@#***;;;;;;***#+  ",
"O@##***********#+  ",
"X@###*****@++@*#+  ",
"X@@#++#***####*#+  ",
"X@@+*#+***@X..##+  ",
"X+@+#*****X&-o##+  ",
" X@+##****#=$o##+  ",
"  X@++#****:%%;;#+ ",
"   X@@##****;;;;#+ ",
"    X+@#*******#+  ",
"    OO+@######@+   ",
"   O#######++O+    ",
"   O#;;;;*;*#O     ",
"   O#;;;##;;;#O    ",
"   XO*;;#+#;;*O    ",
"  X@O#*;*#+@**O    ",
"  X#@O*;;*#+OOO    ",
"  X#@O#*;**@OO     ",
"   XXXO#**#+OO     ",
"    X@@O###@OO     ",
"   X##@@OOOOX      ",
"  X;**#@@O@@X      ",
" X;***#XX@##@XX    ",
" X***#X  X@###@X   ",
" X#**X    X@###X   ",
"  X#*X     X@@X    ",
"  X@#X      XX     ",
"   XX              "
};
