/* XPM */
static char *_55c0417a89e4c5dd979646ebfbd9298aneRGlFueroFYEyc[] = {
/* columns rows colors chars-per-pixel */
"21 36 17 1 ",
"  c None",
". c gray5",
"X c #2D2621",
"o c #0E3E73",
"O c #554242",
"+ c #7D4C48",
"@ c #C07A5E",
"# c #C07A68",
"$ c #EA9777",
"% c #2877CE",
"& c #489EFF",
"* c #8A99AA",
"= c #F9C19D",
"- c #BEC3C9",
"; c #BFD2EA",
": c #FBDCC8",
"> c #EAEBED",
/* pixels */
"      ++++++++       ",
"    ++@$$$$$@++      ",
"   +@$=======$@+     ",
"  +@$==:::::==$++    ",
"  +$==:::::::==@++   ",
" O@$==::::::::=$++   ",
" O@$==::::::::==$+   ",
" O@$===::::::===$+   ",
" O@$$===========$+   ",
" X@$$$=====@++@=$+   ",
" X@@$++$===$$$$=$+   ",
" X@@+=$+===@X..$$+   ",
" X+@+$=====X*;o$$+   ",
"  X@+$$====$-%o$$+   ",
"   X@++$====>&&::$+  ",
"    X@@$$====::::$+  ",
"     XO@$=======$+   ",
"      OO@$$$$$$@+    ",
"     O$$$$$$OOO+     ",
"    O$::::::=$O      ",
"    O=:::=::::$O     ",
"    O=::=$==::=OO    ",
"   O$:::=+$$===OO    ",
"   O$::=+@$===O#O    ",
"   O$=:=+@$===OO     ",
"    O=:=$+@===O      ",
"    O====@+$=$O      ",
"    X$==+@+$$@O      ",
"     X$$@+@$@@O      ",
"      XXX@$+@O       ",
"      O@$$$O$O       ",
"      O$==O@$O       ",
"      O$=$O@$O       ",
"      O$===X@$X      ",
"      O$$$$$XXX      ",
"       XXXXXX        "
};
