/* XPM */
static char *_0bd1798e74d48778a5ff8cfb8fd22ed7tffBPQEv92ouICb[] = {
/* columns rows colors chars-per-pixel */
"254 46 8 1 ",
"  c #292939",
". c #632900",
"X c #734208",
"o c #8C4210",
"O c #945A18",
"+ c #C6BD8C",
"@ c #E7DEAD",
"# c white",
/* pixels */
"  ..........ooooooooooooooooooooooooooooooooooooooooooooooooooooooooooooooooooooooooooooooooooooooooooooooooooooooooooooooooooooooooooooooooooooooooooooooooooooooooooooooooooooooooooooooooooooooooooooooooooooooooooooooooooooooooooooo...................  ",
"  ..........ooooooooooooooooooooooooooooooooooooooooooooooooooooooooooooooooooooooooooooooooooooooooooooooooooooooooooooooooooooooooooooooooooooooooooooooooooooooooooooooooooooooooooooooooooooooooooooooooooooooooooooooooooooooooooooo...................  ",
"  ..........@@@@@@@@@@@@@@@@@@@@@@@@@@@@@@@@@@@@@@@@@@@@@@@@@@@@@@@@@@@@@@@@@@@@@@@@@@@@@@@@@@@@@@@@@@@@@@@@@@@@@@@@@@@@@@@@@@@@@@@@@@@@@@@@@@@@@@@@@@@@@@@@@@@@@@@@@@@@@@@@@@@@@@@@@@@@@@@@@@@@@@@@@@@@@@@@@@@@@@@@@@@@@@@@@@@@@@@@@@@++...................  ",
"  ..........@@@@@@@@@@@@@@@@@@@@@@@@@@@@@@@@@@@@@@@@@@@@@@@@@@@@@@@@@@@@@@@@@@@@@@@@@@@@@@@@@@@@@@@@@@@@@@@@@@@@@@@@@@@@@@@@@@@@@@@@@@@@@@@@@@@@@@@@@@@@@@@@@@@@@@@@@@@@@@@@@@@@@@@@@@@@@@@@@@@@@@@@@@@@@@@@@@@@@@@@@@@@@@@@@@@@@@@@@@@++...................  ",
"  oooooo.++@@@@@@@@####@@@@####@@@@####@@@@####@@@@####@@@@####@@@@####@@@@####@@@@####@@@@####@@@@####@@@@####@@@@####@@@@####@@@@####@@@@####@@@@####@@@@####@@@@####@@@@####@@@@####@@@@####@@@@####@@@@####@@@@####@@@@####@@@@####++++.oooooo.oooooo.XX  ",
"  oooooo.++############################################################################################################################################################################################################################++++.oooooo.oooooo.XX  ",
"  oooooo.++############################################################################################################################################################################################################################++++.oooooo.oooooo.XX  ",
"  .......+###############################################################################################################################################################################################################################++.................  ",
"  oo.+++++###############################################################################################################################################################################################################################++++++.OOOOOO.XXXXX  ",
"  oo.+++++###############################################################################################################################################################################################################################++++++.OOOOOO.XXXXX  ",
"  oo.+++++###############################################################################################################################################################################################################################++++++.OOOOOO.XXXXX  ",
"  .......++############################################################################################################################################################################################################################++++.................  ",
"  OOOOOO.++############################################################################################################################################################################################################################++++.OOOOOO.oooooo.XX  ",
"  OOOOOO.++############################################################################################################################################################################################################################++++.OOOOOO.oooooo.XX  ",
"  OOOOOO.++############################################################################################################################################################################################################################++++.OOOOOO.oooooo.XX  ",
"  .......+###############################################################################################################################################################################################################################++.................  ",
"  oo.+++++###############################################################################################################################################################################################################################++++++.OOOOOO.XXXXX  ",
"  oo.+++++###############################################################################################################################################################################################################################++++++.OOOOOO.XXXXX  ",
"  oo.+++++###############################################################################################################################################################################################################################++++++.OOOOOO.XXXXX  ",
"  .......++############################################################################################################################################################################################################################++++.................  ",
"  OOOOOO.++############################################################################################################################################################################################################################++++.OOOOOO.oooooo.XX  ",
"  OOOOOO.++############################################################################################################################################################################################################################++++.OOOOOO.oooooo.XX  ",
"  OOOOOO.++############################################################################################################################################################################################################################++++.OOOOOO.oooooo.XX  ",
"  .......+###############################################################################################################################################################################################################################++.................  ",
"  oo.+++++###############################################################################################################################################################################################################################++++++.OOOOOO.XXXXX  ",
"  oo.+++++###############################################################################################################################################################################################################################++++++.OOOOOO.XXXXX  ",
"  oo.+++++###############################################################################################################################################################################################################################++++++.OOOOOO.XXXXX  ",
"  .......++############################################################################################################################################################################################################################++++.................  ",
"  OOOOOO.++############################################################################################################################################################################################################################++++.OOOOOO.oooooo.XX  ",
"  OOOOOO.++############################################################################################################################################################################################################################++++.OOOOOO.oooooo.XX  ",
"  OOOOOO.++############################################################################################################################################################################################################################++++.OOOOOO.oooooo.XX  ",
"  .......+###############################################################################################################################################################################################################################++.................  ",
"  oo.+++++###############################################################################################################################################################################################################################++++++.OOOOOO.XXXXX  ",
"  oo.+++++###############################################################################################################################################################################################################################++++++.OOOOOO.XXXXX  ",
"  oo.+++++###############################################################################################################################################################################################################################++++++.OOOOOO.XXXXX  ",
"  .......++############################################################################################################################################################################################################################++++.................  ",
"  OOOOOO.++############################################################################################################################################################################################################################++++.OOOOOO.oooooo.XX  ",
"  OOOOOO.++############################################################################################################################################################################################################################++++.OOOOOO.oooooo.XX  ",
"  OOOOOO.++############################################################################################################################################################################################################################++++.OOOOOO.oooooo.XX  ",
"  ..........############################################################################################################################################################################################################################....................  ",
"  oo.XXXXXX.############################################################################################################################################################################################################################.oooooo.XXXXXX.ooooo  ",
"  oo.XXXXXX.#######@@@@####@@@@####@@@@####@@@@####@@@@####@@@@####@@@@####@@@@####@@@@####@@@@####@@@@####@@@@####@@@@####@@@@####@@@@####@@@@####@@@@####@@@@####@@@@####@@@@####@@@@####@@@@####@@@@####@@@@####@@@@####@@@@####@@@@@.oooooo.XXXXXX.ooooo  ",
"  oo.XXXXXX.@@@@@@@@@@@@@@@@@@@@@@@@@@@@@@@@@@@@@@@@@@@@@@@@@@@@@@@@@@@@@@@@@@@@@@@@@@@@@@@@@@@@@@@@@@@@@@@@@@@@@@@@@@@@@@@@@@@@@@@@@@@@@@@@@@@@@@@@@@@@@@@@@@@@@@@@@@@@@@@@@@@@@@@@@@@@@@@@@@@@@@@@@@@@@@@@@@@@@@@@@@@@@@@@@@@@@@@@@@@@.oooooo.XXXXXX.ooooo  ",
"  ..........@@@@@@@@@@@@@@@@@@@@@@@@@@@@@@@@@@@@@@@@@@@@@@@@@@@@@@@@@@@@@@@@@@@@@@@@@@@@@@@@@@@@@@@@@@@@@@@@@@@@@@@@@@@@@@@@@@@@@@@@@@@@@@@@@@@@@@@@@@@@@@@@@@@@@@@@@@@@@@@@@@@@@@@@@@@@@@@@@@@@@@@@@@@@@@@@@@@@@@@@@@@@@@@@@@@@@@@@@@@@....................  ",
"  ..........oooooooooooooooooooooooooooooooooooooooooooooooooooooooooooooooooooooooooooooooooooooooooooooooooooooooooooooooooooooooooooooooooooooooooooooooooooooooooooooooooooooooooooooooooooooooooooooooooooooooooooooooooooooooooooo....................  ",
"  ..........oooooooooooooooooooooooooooooooooooooooooooooooooooooooooooooooooooooooooooooooooooooooooooooooooooooooooooooooooooooooooooooooooooooooooooooooooooooooooooooooooooooooooooooooooooooooooooooooooooooooooooooooooooooooooooo....................  "
};
